<svg width="256" height="63" viewBox="0 0 256 63" fill="none" xmlns="http://www.w3.org/2000/svg">
<path d="M63.9394 59.3271C62.1832 59.3188 60.4463 58.953 58.8359 58.2532C58.4793 58.1067 58.0684 58.2139 57.8281 58.516C56.5592 59.585 55.312 60.9049 53.6311 61.0558C49.903 61.3906 46.0908 61.9472 42.6121 59.8504C42.3677 59.6336 42.0354 59.5432 41.7148 59.6068C41.3934 59.6704 41.1213 59.8805 40.9774 60.1752C39.5711 61.9087 37.4074 62.1264 35.4209 62.3523V62.3515C32.8437 62.7725 30.2003 62.4754 27.7804 61.4935C25.8258 60.592 23.6603 60.0688 21.9929 58.5839C21.5878 58.3362 21.0672 58.3897 20.7206 58.7145C19.4701 59.2193 18.1241 59.4436 16.7773 59.3716C15.202 59.462 13.6224 59.3122 12.0924 58.928C9.20383 58.0658 6.81647 56.2837 4.30033 54.7402C2.01518 53.3599 0.452397 51.0446 0.0278974 48.4087C-0.0784076 47.4728 0.120811 46.527 0.596249 45.7134C1.45924 43.6542 3.12675 42.0371 5.21175 41.2376C7.23741 40.3553 9.44968 39.9879 11.6521 40.1662C12.6599 40.193 13.6468 40.46 14.5308 40.9446C14.982 41.2401 15.1661 41.066 15.2423 40.6199C15.9329 36.5576 18.7195 34.3629 22.1933 32.7423C23.7302 32.0174 25.344 31.4675 27.0038 31.1033C29.0496 30.7334 31.159 31.1686 32.8917 32.3179C33.1588 32.5732 33.522 32.703 33.8912 32.6728C34.2595 32.6435 34.5977 32.4577 34.8203 32.1631C37.8154 29.3146 41.8776 27.869 45.9983 28.1861C48.5755 28.1836 51.0642 29.1286 52.9894 30.8413C54.0977 32.0007 54.8627 33.4445 55.2 35.0124C55.2226 35.261 55.3557 35.487 55.5624 35.6276C55.77 35.7683 56.0286 35.8084 56.2689 35.7373C58.0535 35.5916 59.8498 35.8168 61.5431 36.3994C63.6992 37.0875 65.4212 38.7255 66.2156 40.8458C66.7496 41.8821 67.169 42.9736 67.4678 44.1004C67.5892 44.8111 68.1065 44.3365 68.397 44.2753C69.9204 43.7631 71.5753 43.8066 73.0703 44.3976C74.906 45.5067 76.0377 47.4863 76.0594 49.6317C75.9782 52.6844 73.9952 54.5076 72.0012 56.2737C69.7613 58.214 66.9036 59.2962 63.9396 59.3273L63.9394 59.3271ZM16.0594 58.0615V58.0607C17.4916 58.2122 18.9396 58.0799 20.3209 57.6715C21.0014 57.4513 21.168 57.2998 20.8281 56.713V56.7122C20.7026 56.5833 20.6473 56.4008 20.68 56.2234C20.7126 56.0459 20.8298 55.8952 20.9938 55.8199C21.3739 55.6332 21.5003 55.9806 21.6936 56.2342C22.3582 57.2923 23.2815 58.1636 24.3756 58.7662C26.1108 59.6376 27.9355 60.3198 29.8174 60.8003C32.8048 61.5871 35.9663 61.3854 38.83 60.2252C40.0455 59.6795 40.392 58.8282 39.7508 57.7927C39.5641 57.5348 39.5976 57.1774 39.8287 56.9581C40.0881 56.7556 40.4623 56.7999 40.6674 57.0569C41.3856 57.5792 42.1348 58.058 42.9108 58.4899C46.2716 60.7834 50.0124 60.2226 53.6945 59.6049C54.6227 59.4324 55.4673 58.957 56.0951 58.2522C56.553 57.7474 56.9757 57.3356 56.0884 56.8284C55.8951 56.7179 55.5594 56.3512 55.8691 56.0541V56.0533C56.0876 55.7569 56.4869 55.6582 56.8183 55.8189C57.0184 55.9344 57.2168 56.0516 57.4185 56.1629C62.4332 58.921 65.9548 58.7836 70.2806 55.8892C72.4367 54.4461 74.4626 52.5453 74.5438 49.5133C74.5338 48.6989 74.3044 47.902 73.8792 47.2072C73.4539 46.5125 72.8496 45.9449 72.1297 45.5641C71.0407 45.0861 67.9554 45.6168 67.2706 46.4865C67.099 46.8933 66.6512 47.1093 66.2268 46.9896C65.8417 46.7569 65.6743 46.2865 65.8241 45.8629C66.344 43.6708 65.1545 41.9035 64.1894 40.2094C62.8777 37.9058 60.4754 37.2831 57.9777 37.1985C57.1398 37.17 56.2332 36.8921 55.4607 37.7426C54.9107 37.9418 54.308 37.941 53.7598 37.7401C53.3605 37.6647 53.2073 37.0395 53.4593 36.903C54.344 36.4225 53.707 35.8969 53.6434 35.367C53.2868 32.3987 51.3448 30.9491 48.7099 30.1213C45.6866 29.2642 42.4562 29.5086 39.5961 30.8119C38.1388 31.3618 36.8162 32.219 35.7189 33.3248C35.5288 33.519 35.2116 33.6404 35.4435 34.0698C35.5539 34.274 36.1491 34.5427 35.5715 34.9027H35.5707C35.2309 35.1169 34.7931 35.0952 34.475 34.8491C33.7468 34.4063 33.0152 33.9702 32.2719 33.5542V33.555C30.7301 32.6133 28.8926 32.2793 27.1181 32.6167C25.3218 33.0645 23.5807 33.7132 21.9283 34.5502C19.1293 35.7146 17.0701 38.1663 16.4062 41.1245C16.1986 41.9256 16.4882 42.7744 17.1436 43.28C17.5337 43.6701 18.4093 43.994 17.9773 44.5465C17.5438 45.1015 16.8616 44.4142 16.325 44.1506C16.1626 44.0426 16.012 43.917 15.8763 43.7756C14.4659 42.4354 12.6042 41.6712 10.658 41.6344C7.65462 41.5063 4.75426 42.7477 2.77383 45.0102C1.73757 46.1059 1.31652 47.6462 1.64967 49.116C2.12176 50.9717 3.27775 52.5797 4.88581 53.6185C6.45779 54.6791 8.05317 55.7329 9.69395 56.6327V56.6335C11.5907 57.8221 13.8374 58.326 16.0597 58.0607L16.0594 58.0615Z" fill="#B5B5B5"/>
<path d="M217.241 6.88397C217.397 6.8463 217.56 6.85049 217.714 6.89485C219.267 7.75954 219.704 6.70233 220.238 5.55473C220.803 4.36947 221.684 3.36259 222.783 2.64344C223.883 1.92524 225.158 1.52346 226.471 1.48244C227.527 1.39121 228.585 1.644 229.487 2.20232C229.903 2.53212 230.437 2.67691 230.963 2.60494C231.489 2.53295 231.963 2.24918 232.277 1.81977C233.723 0.434459 235.724 -0.212597 237.708 0.0619675C239.692 0.33651 241.442 1.50422 242.458 3.23018C242.504 3.44781 242.649 3.63113 242.85 3.72655C243.051 3.82197 243.285 3.81779 243.483 3.71567C246.232 2.99246 250.874 4.90596 250.326 8.60653C250.247 8.8317 250.294 9.08113 250.449 9.26194C250.604 9.44358 250.843 9.52813 251.078 9.48544C254.434 9.7014 255.84 12.071 254.614 15.3549C254.351 16.3376 253.805 17.2224 253.043 17.897C252.281 18.5717 251.337 19.007 250.329 19.1476C249.991 19.2388 249.633 19.2011 249.322 19.0421C249 18.6755 248.524 18.4813 248.038 18.5181C247.551 18.5558 247.11 18.8203 246.848 19.2313C246.257 19.7561 245.488 20.034 244.699 20.0064C242.197 20.0348 239.692 19.8691 237.687 18.0895C237.004 17.4843 236.532 18.0519 235.997 18.2201C233.569 18.9944 231.014 19.2957 228.472 19.1074C227.228 18.94 226.083 18.3415 225.234 17.4165C225.058 17.1721 224.789 17.0106 224.49 16.9696C224.192 16.9294 223.889 17.0123 223.653 17.2006C221.607 18.2862 219.194 18.4495 217.019 17.6493C216.091 17.3303 215.264 16.7703 214.623 16.0262C213.501 14.82 212.156 13.7016 211.998 11.8802C211.899 10.4832 212.429 9.11378 213.443 8.14778C214.457 7.18099 215.849 6.71725 217.241 6.88384L217.241 6.88397ZM248.914 9.03518C248.976 7.34183 248.298 5.91219 247.084 5.54211C245.613 5.0943 243.989 4.05885 242.735 6.04937C242.44 6.51812 241.973 6.38168 241.722 5.91963C241.551 5.61243 241.448 5.27175 241.42 4.92101C241.357 4.17939 241.068 3.47458 240.589 2.90371C240.111 2.33283 239.468 1.92352 238.749 1.73182C237.456 1.26391 236.039 1.27479 234.753 1.76112C233.468 2.24827 232.399 3.17909 231.74 4.38612C231.409 4.99885 231.113 5.25331 230.555 4.64309C229.322 3.31049 227.48 2.72206 225.703 3.0937C222.679 3.48125 221.468 5.30341 220.745 7.79041L220.745 7.79125C220.679 8.17964 220.769 8.57892 220.996 8.90035C221.151 9.18745 221.627 9.43857 221.28 9.78595L221.28 9.78678C220.93 10.0672 220.426 10.0446 220.102 9.73405C219.464 9.29292 218.797 8.89448 218.105 8.54209C217.377 8.24911 216.571 8.21311 215.819 8.43996C215.068 8.66597 214.416 9.14141 213.97 9.78679C212.858 11.5547 212.854 11.8761 214.476 14.0022C217.003 17.3136 220.373 17.6183 223.731 15.6671C225.039 14.9079 225.015 14.8125 225.899 16.0697V16.0706C226.744 17.3186 228.184 18.0284 229.689 17.9364C230.817 17.9355 231.943 17.8292 233.052 17.6208C234.342 17.3521 235.848 17.4316 236.649 16.0488C236.808 15.6428 237.196 15.3725 237.632 15.3641C238.226 15.3859 238.196 15.9408 238.303 16.3208C238.569 17.2215 239.261 17.9347 240.153 18.2268C241.328 18.6244 242.56 18.8228 243.8 18.8119C244.995 19.0773 246.216 18.4896 246.755 17.3906C247.144 16.4824 247.538 16.2731 248.397 16.9704C250.398 18.5934 251.473 18.1272 252.718 16.0279C252.99 15.4344 253.208 14.8167 253.365 14.1822C253.852 13.1518 253.562 11.9213 252.666 11.2165C251.768 10.4849 250.822 10.9294 249.948 11.4048C249.662 11.5597 249.489 11.9355 249.055 11.6141V11.6132C248.716 11.3923 248.566 10.9729 248.69 10.587C248.839 10.0831 248.915 9.56076 248.914 9.03509L248.914 9.03518Z" fill="#B5B5B5"/>
</svg>
